name rise30.9205peak61.366fall85.3838.mot
datacolumns 19
datarows 30
range 6.99831100000000 7.05164300000000
endheader
time	ground_force1_vx	ground_force1_vy	ground_force1_vz	ground_force1_px	ground_force1_py	ground_force1_pz	ground_force2_vx	ground_force2_vy	ground_force2_vz	ground_force2_px	ground_force2_py	ground_force2_pz	ground_torque1_x	ground_torque1_y	ground_torque1_z	ground_torque2_x	ground_torque2_y	ground_torque2_z	
6.99831100000000	26.18114900000000	669.99591199999998	33.43703900000000	0.25028900000000	0.00000000000000	0.08066000000000	0.00000000000000	0.00000000000000	0.00000000000000	0.00000000000000	0.00000000000000	0.00000000000000	0.00000000000000	12.29148800000000	0.00000000000000	0.00000000000000	0.00000000000000	0.00000000000000	
6.99997600000000	25.83365000000000	669.52205500000002	33.42931300000000	0.24968300000000	0.00000000000000	0.08064600000000	0.00000000000000	0.00000000000000	0.00000000000000	0.00000000000000	0.00000000000000	0.00000000000000	0.00000000000000	12.32583100000000	0.00000000000000	0.00000000000000	0.00000000000000	0.00000000000000	
7.00164400000000	25.48083200000000	669.13073799999995	33.42542800000000	0.24907600000000	0.00000000000000	0.08063100000000	0.00000000000000	0.00000000000000	0.00000000000000	0.00000000000000	0.00000000000000	0.00000000000000	0.00000000000000	12.36383800000000	0.00000000000000	0.00000000000000	0.00000000000000	0.00000000000000	
7.00331200000000	25.12234700000000	668.82166600000005	33.42510400000000	0.24846500000000	0.00000000000000	0.08061700000000	0.00000000000000	0.00000000000000	0.00000000000000	0.00000000000000	0.00000000000000	0.00000000000000	0.00000000000000	12.40532600000000	0.00000000000000	0.00000000000000	0.00000000000000	0.00000000000000	
7.00497900000000	24.75785400000000	668.59448299999997	33.42807200000000	0.24784700000000	0.00000000000000	0.08060300000000	0.00000000000000	0.00000000000000	0.00000000000000	0.00000000000000	0.00000000000000	0.00000000000000	0.00000000000000	12.45011800000000	0.00000000000000	0.00000000000000	0.00000000000000	0.00000000000000	
7.00663800000000	24.38701700000000	668.44878000000006	33.43407500000000	0.24722100000000	0.00000000000000	0.08058900000000	0.00000000000000	0.00000000000000	0.00000000000000	0.00000000000000	0.00000000000000	0.00000000000000	0.00000000000000	12.49804700000000	0.00000000000000	0.00000000000000	0.00000000000000	0.00000000000000	
7.00831000000000	24.00950900000000	668.38409200000001	33.44286800000000	0.24658500000000	0.00000000000000	0.08057500000000	0.00000000000000	0.00000000000000	0.00000000000000	0.00000000000000	0.00000000000000	0.00000000000000	0.00000000000000	12.54895200000000	0.00000000000000	0.00000000000000	0.00000000000000	0.00000000000000	
7.00997300000000	23.62501200000000	668.39990999999998	33.45422000000000	0.24593700000000	0.00000000000000	0.08056100000000	0.00000000000000	0.00000000000000	0.00000000000000	0.00000000000000	0.00000000000000	0.00000000000000	0.00000000000000	12.60268000000000	0.00000000000000	0.00000000000000	0.00000000000000	0.00000000000000	
7.01163800000000	23.23321700000000	668.49567999999999	33.46791700000000	0.24527500000000	0.00000000000000	0.08054800000000	0.00000000000000	0.00000000000000	0.00000000000000	0.00000000000000	0.00000000000000	0.00000000000000	0.00000000000000	12.65909100000000	0.00000000000000	0.00000000000000	0.00000000000000	0.00000000000000	
7.01830400000000	22.83383000000000	668.67080799999997	33.48375800000000	0.24459700000000	0.00000000000000	0.08053500000000	0.00000000000000	0.00000000000000	0.00000000000000	0.00000000000000	0.00000000000000	0.00000000000000	0.00000000000000	12.71804900000000	0.00000000000000	0.00000000000000	0.00000000000000	0.00000000000000	
7.01997300000000	22.42656600000000	668.92466500000000	33.50156100000000	0.24390200000000	0.00000000000000	0.08052300000000	0.00000000000000	0.00000000000000	0.00000000000000	0.00000000000000	0.00000000000000	0.00000000000000	0.00000000000000	12.77943200000000	0.00000000000000	0.00000000000000	0.00000000000000	0.00000000000000	
7.02164000000000	22.01115800000000	669.25658899999996	33.52116000000000	0.24318800000000	0.00000000000000	0.08051100000000	0.00000000000000	0.00000000000000	0.00000000000000	0.00000000000000	0.00000000000000	0.00000000000000	0.00000000000000	12.84312400000000	0.00000000000000	0.00000000000000	0.00000000000000	0.00000000000000	
7.02330700000000	21.58735200000000	669.66588700000000	33.54240700000000	0.24245400000000	0.00000000000000	0.08049900000000	0.00000000000000	0.00000000000000	0.00000000000000	0.00000000000000	0.00000000000000	0.00000000000000	0.00000000000000	12.90902100000000	0.00000000000000	0.00000000000000	0.00000000000000	0.00000000000000	
7.02497700000000	21.15491300000000	670.15184399999998	33.56517400000000	0.24169900000000	0.00000000000000	0.08048800000000	0.00000000000000	0.00000000000000	0.00000000000000	0.00000000000000	0.00000000000000	0.00000000000000	0.00000000000000	12.97702700000000	0.00000000000000	0.00000000000000	0.00000000000000	0.00000000000000	
7.02664300000000	20.71362100000000	670.71371899999997	33.58935100000000	0.24092100000000	0.00000000000000	0.08047700000000	0.00000000000000	0.00000000000000	0.00000000000000	0.00000000000000	0.00000000000000	0.00000000000000	0.00000000000000	13.04705900000000	0.00000000000000	0.00000000000000	0.00000000000000	0.00000000000000	
7.02830600000000	20.26327800000000	671.35075400000005	33.61485100000000	0.24012000000000	0.00000000000000	0.08046700000000	0.00000000000000	0.00000000000000	0.00000000000000	0.00000000000000	0.00000000000000	0.00000000000000	0.00000000000000	13.11903800000000	0.00000000000000	0.00000000000000	0.00000000000000	0.00000000000000	
7.02997300000000	19.80370400000000	672.06217400000003	33.64160300000000	0.23929500000000	0.00000000000000	0.08045700000000	0.00000000000000	0.00000000000000	0.00000000000000	0.00000000000000	0.00000000000000	0.00000000000000	0.00000000000000	13.19290000000000	0.00000000000000	0.00000000000000	0.00000000000000	0.00000000000000	
7.03164200000000	19.33474000000000	672.84718899999996	33.66955800000000	0.23844500000000	0.00000000000000	0.08044800000000	0.00000000000000	0.00000000000000	0.00000000000000	0.00000000000000	0.00000000000000	0.00000000000000	0.00000000000000	13.26858500000000	0.00000000000000	0.00000000000000	0.00000000000000	0.00000000000000	
7.03330900000000	18.85624800000000	673.70499600000005	33.69869000000000	0.23757100000000	0.00000000000000	0.08043900000000	0.00000000000000	0.00000000000000	0.00000000000000	0.00000000000000	0.00000000000000	0.00000000000000	0.00000000000000	13.34604400000000	0.00000000000000	0.00000000000000	0.00000000000000	0.00000000000000	
7.03497500000000	18.36811300000000	674.63478699999996	33.72899100000000	0.23667100000000	0.00000000000000	0.08043100000000	0.00000000000000	0.00000000000000	0.00000000000000	0.00000000000000	0.00000000000000	0.00000000000000	0.00000000000000	13.42523500000000	0.00000000000000	0.00000000000000	0.00000000000000	0.00000000000000	
7.03664300000000	17.87024200000000	675.63574000000006	33.76047500000000	0.23574600000000	0.00000000000000	0.08042300000000	0.00000000000000	0.00000000000000	0.00000000000000	0.00000000000000	0.00000000000000	0.00000000000000	0.00000000000000	13.50612500000000	0.00000000000000	0.00000000000000	0.00000000000000	0.00000000000000	
7.03831200000000	17.36256800000000	676.70703300000002	33.79317600000000	0.23479600000000	0.00000000000000	0.08041600000000	0.00000000000000	0.00000000000000	0.00000000000000	0.00000000000000	0.00000000000000	0.00000000000000	0.00000000000000	13.58868600000000	0.00000000000000	0.00000000000000	0.00000000000000	0.00000000000000	
7.03997800000000	16.84504500000000	677.84783500000003	33.82715100000000	0.23382000000000	0.00000000000000	0.08040900000000	0.00000000000000	0.00000000000000	0.00000000000000	0.00000000000000	0.00000000000000	0.00000000000000	0.00000000000000	13.67289700000000	0.00000000000000	0.00000000000000	0.00000000000000	0.00000000000000	
7.04164300000000	16.31765100000000	679.05731400000002	33.86247600000000	0.23282000000000	0.00000000000000	0.08040200000000	0.00000000000000	0.00000000000000	0.00000000000000	0.00000000000000	0.00000000000000	0.00000000000000	0.00000000000000	13.75874400000000	0.00000000000000	0.00000000000000	0.00000000000000	0.00000000000000	
7.04330700000000	15.78039100000000	680.33463400000005	33.89924600000000	0.23179600000000	0.00000000000000	0.08039600000000	0.00000000000000	0.00000000000000	0.00000000000000	0.00000000000000	0.00000000000000	0.00000000000000	0.00000000000000	13.84621500000000	0.00000000000000	0.00000000000000	0.00000000000000	0.00000000000000	
7.04497500000000	15.23329400000000	681.67895799999997	33.93757800000000	0.23074800000000	0.00000000000000	0.08039000000000	0.00000000000000	0.00000000000000	0.00000000000000	0.00000000000000	0.00000000000000	0.00000000000000	0.00000000000000	13.93530400000000	0.00000000000000	0.00000000000000	0.00000000000000	0.00000000000000	
7.04664200000000	14.67641000000000	683.08944599999995	33.97760700000000	0.22967700000000	0.00000000000000	0.08038500000000	0.00000000000000	0.00000000000000	0.00000000000000	0.00000000000000	0.00000000000000	0.00000000000000	0.00000000000000	14.02600900000000	0.00000000000000	0.00000000000000	0.00000000000000	0.00000000000000	
7.04830700000000	14.10982000000000	684.56525799999997	34.01948900000000	0.22858400000000	0.00000000000000	0.08038000000000	0.00000000000000	0.00000000000000	0.00000000000000	0.00000000000000	0.00000000000000	0.00000000000000	0.00000000000000	14.11832800000000	0.00000000000000	0.00000000000000	0.00000000000000	0.00000000000000	
7.04997000000000	13.53362200000000	686.10554900000000	34.06339400000000	0.22747000000000	0.00000000000000	0.08037500000000	0.00000000000000	0.00000000000000	0.00000000000000	0.00000000000000	0.00000000000000	0.00000000000000	0.00000000000000	14.21226300000000	0.00000000000000	0.00000000000000	0.00000000000000	0.00000000000000	
7.05164300000000	12.94794500000000	687.70947500000000	34.10951300000000	0.22633600000000	0.00000000000000	0.08037000000000	0.00000000000000	0.00000000000000	0.00000000000000	0.00000000000000	0.00000000000000	0.00000000000000	0.00000000000000	14.30781600000000	0.00000000000000	0.00000000000000	0.00000000000000	0.00000000000000	
